<svg width="24" height="25" viewBox="0 0 24 25" fill="none" xmlns="http://www.w3.org/2000/svg">
<g clip-path="url(#clip0_1312_8509)">
<path d="M21.4398 11.55L12.2498 20.74C11.124 21.8659 9.59699 22.4984 8.0048 22.4984C6.41262 22.4984 4.88565 21.8659 3.7598 20.74C2.63396 19.6142 2.00146 18.0872 2.00146 16.495C2.00146 14.9029 2.63396 13.3759 3.7598 12.25L12.9498 3.06004C13.7004 2.30948 14.7183 1.88782 15.7798 1.88782C16.8413 1.88782 17.8592 2.30948 18.6098 3.06004C19.3604 3.8106 19.782 4.82859 19.782 5.89004C19.782 6.9515 19.3604 7.96948 18.6098 8.72004L9.4098 17.91C9.03452 18.2853 8.52553 18.4962 7.9948 18.4962C7.46407 18.4962 6.95508 18.2853 6.5798 17.91C6.20452 17.5348 5.99369 17.0258 5.99369 16.495C5.99369 15.9643 6.20452 15.4553 6.5798 15.08L15.0698 6.60004" stroke="black" stroke-width="2" stroke-linecap="round" stroke-linejoin="round"/>
</g>
<defs>
<clipPath id="clip0_1312_8509">
<rect width="24" height="24" fill="white" transform="translate(0 0.5)"/>
</clipPath>
</defs>
</svg>
