<svg width="16" height="16" viewBox="0 0 16 16" fill="none" xmlns="http://www.w3.org/2000/svg">
<path d="M7.99998 14.6666C11.6819 14.6666 14.6666 11.6819 14.6666 7.99998C14.6666 4.31808 11.6819 1.33331 7.99998 1.33331C4.31808 1.33331 1.33331 4.31808 1.33331 7.99998C1.33331 11.6819 4.31808 14.6666 7.99998 14.6666Z" fill="#D1D5DB"/>
<path fill-rule="evenodd" clip-rule="evenodd" d="M7.99998 6.66669C8.36817 6.66669 8.66665 6.96516 8.66665 7.33335L8.66665 10.6667C8.66665 11.0349 8.36817 11.3334 7.99998 11.3334C7.63179 11.3334 7.33331 11.0349 7.33331 10.6667L7.33331 7.33335C7.33331 6.96516 7.63179 6.66669 7.99998 6.66669Z" fill="white"/>
<path fill-rule="evenodd" clip-rule="evenodd" d="M7.33331 5.33335C7.33331 4.96516 7.63179 4.66669 7.99998 4.66669H8.00665C8.37484 4.66669 8.67331 4.96516 8.67331 5.33335C8.67331 5.70154 8.37484 6.00002 8.00665 6.00002H7.99998C7.63179 6.00002 7.33331 5.70154 7.33331 5.33335Z" fill="white"/>
</svg>
