<svg width="81" height="46" viewBox="0 0 81 46" fill="none" xmlns="http://www.w3.org/2000/svg">
    <g filter="url(#filter0_b_2148_708)">
        <rect width="81" height="46" rx="5" fill="white" fill-opacity="0.25" />
        <mask id="mask0_2148_708" style="mask-type:alpha" maskUnits="userSpaceOnUse" x="12" y="9" width="58"
            height="28">
            <path
                d="M69.7068 23.7198C69.3427 31.1155 63.2311 37 55.7448 37C48.0245 37 41.7658 30.7412 41.7658 23.0207C41.7658 15.3002 48.0245 9.04163 55.7448 9.04163C62.9935 9.04163 68.9536 14.5588 69.6551 21.623H63.3066C62.6493 18.044 59.5138 15.3323 55.745 15.3323C51.4986 15.3323 48.0564 18.7746 48.0564 23.0207C48.0564 27.2671 51.4986 30.7094 55.745 30.7094C59.005 30.7094 61.7908 28.6805 62.9093 25.8167H52.2501V23.7198H69.7068Z"
                fill="#FFFBF6" />
            <path
                d="M16.6008 33.3461C22.0879 38.318 30.5704 38.1573 35.8639 32.8639C41.323 27.4046 41.323 18.5536 35.8639 13.0943C30.4046 7.63522 21.5536 7.63522 16.0944 13.0943C10.9688 18.22 10.6556 26.3355 15.1548 31.8267L19.6437 27.3378C17.578 24.3423 17.8776 20.2076 20.5426 17.5426C23.5451 14.54 28.4132 14.54 31.4159 17.5426C34.4182 20.5452 34.4182 25.4133 31.4159 28.4159C29.1106 30.721 25.706 31.2565 22.8901 30.0221L30.4273 22.4848L28.9446 21.0023L16.6008 33.3461Z"
                fill="#FFFBF6" />
        </mask>
        <g mask="url(#mask0_2148_708)">
            <rect x="12" y="5.5" width="57.75" height="34.125" fill="url(#paint0_linear_2148_708)" />
            <rect x="12" y="5.5" width="57.75" height="34.125" fill="url(#paint1_linear_2148_708)" />
        </g>
    </g>
    <defs>
        <filter id="filter0_b_2148_708" x="-32" y="-32" width="145" height="110" filterUnits="userSpaceOnUse"
            color-interpolation-filters="sRGB">
            <feFlood flood-opacity="0" result="BackgroundImageFix" />
            <feGaussianBlur in="BackgroundImageFix" stdDeviation="16" />
            <feComposite in2="SourceAlpha" operator="in" result="effect1_backgroundBlur_2148_708" />
            <feBlend mode="normal" in="SourceGraphic" in2="effect1_backgroundBlur_2148_708" result="shape" />
        </filter>
        <linearGradient id="paint0_linear_2148_708" x1="19.6966" y1="26.2625" x2="64.1863" y2="7.08915"
            gradientUnits="userSpaceOnUse">
            <stop offset="0.0516663" stop-color="#FFDB3B" />
            <stop offset="0.17383" stop-color="#FF8972" />
            <stop offset="0.406666" stop-color="#FF5882" />
            <stop offset="0.571666" stop-color="#FF1CE6" />
            <stop offset="0.936666" stop-color="#B14EFF" />
        </linearGradient>
        <linearGradient id="paint1_linear_2148_708" x1="71.7056" y1="1.8731" x2="4.49866" y2="23.6721"
            gradientUnits="userSpaceOnUse">
            <stop stop-color="#FFDB3B" />
            <stop offset="0.216892" stop-color="#FF6270" />
            <stop offset="0.437618" stop-color="#FF1CE6" />
            <stop offset="0.584564" stop-color="#B14EFF" />
            <stop offset="0.804289" stop-color="#3BADFF" />
            <stop offset="0.974305" stop-color="#6BE5FF" />
        </linearGradient>
    </defs>
</svg>