
<svg width="25" height="24" viewBox="0 0 25 24" fill="none" xmlns="http://www.w3.org/2000/svg">
<path d="M19.3999 19H5.3999V5C5.3999 5 9.8999 5 11.3999 5C12.8999 5 12.8999 3 11.3999 3C9.8999 3 5.3999 3 5.3999 3C4.2899 3 3.3999 3.9 3.3999 5V19C3.3999 20.1 4.2899 21 5.3999 21H19.3999C20.4999 21 21.3999 20.1 21.3999 19C21.3999 19 21.3999 14 21.3999 12.5C21.3999 11 19.3999 11 19.3999 12.5C19.3999 14 19.3999 19 19.3999 19Z" fill="#9CA3AF"/>
<path fill-rule="evenodd" clip-rule="evenodd" d="M13.8999 4C13.8999 3.44772 14.3476 3 14.8999 3H20.3999C20.9522 3 21.3999 3.44772 21.3999 4V9C21.3999 9.55228 20.9522 10 20.3999 10C19.8476 10 19.3999 9.55228 19.3999 9V6.41421L10.107 15.7071C9.71648 16.0976 9.08332 16.0976 8.6928 15.7071C8.30227 15.3166 8.30227 14.6834 8.6928 14.2929L17.9857 5H14.8999C14.3476 5 13.8999 4.55228 13.8999 4Z" fill="#9CA3AF"/>
</svg>
